<svg version="1" xmlns="http://www.w3.org/2000/svg" width="1365.333" height="1365.333" viewBox="0 0 1024.000000 1024.000000"><path d="M814.5 144.1c-15.6 12.8-40.4 31.6-58.5 44.5-102.4 72.7-205.6 117-303 129.8-33.2 4.4-39.7 4.6-177.3 4.6-114 0-132.6.2-139.6 1.5-29 5.5-53 27.5-61.3 56.2-2.3 7.7-2.3 8.4-2.3 67.8 0 64.7 0 64 5.5 77.5 3.6 9 9.2 17.3 17 25.1 10.4 10.5 21.1 16.8 35.1 21 6.9 2.1 10 2.2 43.7 2.6l36.4.5-.6 2.1c-8.8 32.3-12.2 61.2-11.3 95.7 1 36.7 8.4 68.4 32.8 140.4 8.8 25.8 16 47 16.2 47.1.1.1 2.7 2.1 5.7 4.4 25 19.5 74.8 28.9 117.5 22.1 35.4-5.6 64.1-21.3 76-41.5l2.7-4.8-3.3-2.6c-41-31.8-63.3-57.8-68.5-79.9-1.2-4.9-1.5-9.7-1.1-18.2.6-12.4 2.4-19.5 7.9-30.3l2.9-5.9-4.3-5.7c-10.5-13.4-13.8-22.5-14.5-39.6-.5-10.2-.2-13.4 1.6-20.5 6.7-26.7 25.4-48.2 51.1-59 6.3-2.6 10.8-2.5 35.5 1.1 69.7 9.9 139.6 34.2 211 73.4C716.9 680.6 771 717.7 817 755.9c9.4 7.8 10.4 8.1 21.6 6 10.3-1.9 21.2-7.7 30-16.2 8.6-8.2 13.2-15 17.3-25.5l2.6-6.7.3-100.6.3-100.7 6.7-.7c19.4-2.1 37.1-13.5 47.5-30.7 10.5-17.4 11.4-40.8 2.3-59.3-10-20.1-32.5-35.3-52.8-35.5H889v-97.3c0-64.7-.4-99.3-1.1-103.3-.6-3.2-2.9-9.7-5.1-14.4-5.4-11.3-17.7-23.9-28.5-29.4-8.1-4-17.5-6.6-24.3-6.6-4.2.1-5.3.7-15.5 9.1zM825.8 565l-.3 117.1-10.5-7.9c-115.2-86.6-235-140.5-348.5-156.6-6-.9-12.5-1.8-14.2-2.1l-3.3-.6V383.2l2.8-.6c1.5-.3 5-.8 7.7-1.1 113.7-14.3 237.2-69.6 357.5-160.2l8.5-6.4.3 116.4c.1 64.1.1 169.3 0 233.7z"/></svg>